<svg xmlns="http://www.w3.org/2000/svg" xmlns:xlink="http://www.w3.org/1999/xlink" width="125" zoomAndPan="magnify" viewBox="0 0 93.75 39.749999" height="53" preserveAspectRatio="xMidYMid meet" version="1.0"><defs><g/></defs><g fill="#000000" fill-opacity="1"><g transform="translate(4.010755, 15.386294)"><g><path d="M 5.890625 0.171875 C 7.46875 0.15625 8.90625 -0.867188 9.722656 -2.582031 L 9.335938 -2.75 C 8.65625 -1.3125 7.359375 -0.246094 5.890625 -0.246094 C 3.804688 -0.246094 2.273438 -2.9375 2.273438 -5.488281 C 2.273438 -8.023438 3.804688 -10.730469 5.890625 -10.730469 C 6.925781 -10.730469 7.914062 -10.1875 8.671875 -9.277344 L 8.996094 -9.539062 C 8.164062 -10.558594 7.019531 -11.117188 5.890625 -11.148438 C 3.230469 -11.148438 1.238281 -8.609375 1.238281 -5.488281 C 1.238281 -2.367188 3.230469 0.171875 5.890625 0.171875 Z M 5.890625 0.171875 "/></g></g></g><g fill="#000000" fill-opacity="1"><g transform="translate(14.971871, 15.386294)"><g><path d="M 1.546875 0 L 8.132812 0 L 8.132812 -0.417969 L 2.597656 -0.417969 L 2.597656 -11.101562 L 1.546875 -11.101562 Z M 1.546875 0 "/></g></g></g><g fill="#000000" fill-opacity="1"><g transform="translate(24.649818, 15.386294)"><g><path d="M 1.546875 0 L 1.980469 0 L 2.859375 -2.84375 L 7.5 -2.84375 L 8.363281 0 L 9.460938 0 L 6.042969 -11.101562 L 4.945312 -11.101562 L 4.945312 -11.085938 Z M 2.984375 -3.261719 L 5.179688 -10.375 L 7.359375 -3.261719 Z M 2.984375 -3.261719 "/></g></g></g><g fill="#000000" fill-opacity="1"><g transform="translate(35.672774, 15.386294)"><g><path d="M 4.375 0.171875 C 4.761719 0.15625 4.976562 0.140625 5.273438 0.0625 C 6.664062 -0.308594 7.683594 -1.328125 7.855469 -2.582031 C 8.132812 -4.605469 6.355469 -5.425781 5.039062 -6.03125 C 4.960938 -6.058594 4.871094 -6.105469 4.792969 -6.152344 C 3.386719 -6.800781 2.457031 -7.4375 2.488281 -8.457031 C 2.566406 -10.867188 5.9375 -11.734375 6.847656 -9.585938 L 7.234375 -9.753906 C 6.847656 -10.652344 5.71875 -11.394531 4.066406 -11.070312 C 2.722656 -10.804688 1.484375 -9.847656 1.453125 -8.488281 C 1.40625 -6.570312 3.386719 -5.644531 4.34375 -5.195312 C 4.4375 -5.164062 4.515625 -5.117188 4.605469 -5.070312 C 6.058594 -4.421875 7.019531 -3.292969 6.816406 -2.148438 C 6.386719 0.277344 3.183594 0.496094 1.578125 -1.792969 L 1.238281 -1.5625 C 2.132812 -0.277344 3.339844 0.171875 4.375 0.171875 Z M 4.375 0.171875 "/></g></g></g><g fill="#000000" fill-opacity="1"><g transform="translate(44.794163, 15.386294)"><g><path d="M 4.375 0.171875 C 4.761719 0.15625 4.976562 0.140625 5.273438 0.0625 C 6.664062 -0.308594 7.683594 -1.328125 7.855469 -2.582031 C 8.132812 -4.605469 6.355469 -5.425781 5.039062 -6.03125 C 4.960938 -6.058594 4.871094 -6.105469 4.792969 -6.152344 C 3.386719 -6.800781 2.457031 -7.4375 2.488281 -8.457031 C 2.566406 -10.867188 5.9375 -11.734375 6.847656 -9.585938 L 7.234375 -9.753906 C 6.847656 -10.652344 5.71875 -11.394531 4.066406 -11.070312 C 2.722656 -10.804688 1.484375 -9.847656 1.453125 -8.488281 C 1.40625 -6.570312 3.386719 -5.644531 4.34375 -5.195312 C 4.4375 -5.164062 4.515625 -5.117188 4.605469 -5.070312 C 6.058594 -4.421875 7.019531 -3.292969 6.816406 -2.148438 C 6.386719 0.277344 3.183594 0.496094 1.578125 -1.792969 L 1.238281 -1.5625 C 2.132812 -0.277344 3.339844 0.171875 4.375 0.171875 Z M 4.375 0.171875 "/></g></g></g><g fill="#000000" fill-opacity="1"><g transform="translate(53.915551, 15.386294)"><g><path d="M 1.546875 0 L 2.597656 0 L 2.597656 -11.101562 L 1.546875 -11.101562 Z M 1.546875 0 "/></g></g></g><g fill="#000000" fill-opacity="1"><g transform="translate(58.07428, 15.386294)"><g><path d="M 5.890625 0.171875 C 7.46875 0.15625 8.90625 -0.867188 9.722656 -2.582031 L 9.335938 -2.75 C 8.65625 -1.3125 7.359375 -0.246094 5.890625 -0.246094 C 3.804688 -0.246094 2.273438 -2.9375 2.273438 -5.488281 C 2.273438 -8.023438 3.804688 -10.730469 5.890625 -10.730469 C 6.925781 -10.730469 7.914062 -10.1875 8.671875 -9.277344 L 8.996094 -9.539062 C 8.164062 -10.558594 7.019531 -11.117188 5.890625 -11.148438 C 3.230469 -11.148438 1.238281 -8.609375 1.238281 -5.488281 C 1.238281 -2.367188 3.230469 0.171875 5.890625 0.171875 Z M 5.890625 0.171875 "/></g></g></g><g fill="#000000" fill-opacity="1"><g transform="translate(69.035396, 15.386294)"><g><path d="M 1.546875 0 L 1.980469 0 L 2.859375 -2.84375 L 7.5 -2.84375 L 8.363281 0 L 9.460938 0 L 6.042969 -11.101562 L 4.945312 -11.101562 L 4.945312 -11.085938 Z M 2.984375 -3.261719 L 5.179688 -10.375 L 7.359375 -3.261719 Z M 2.984375 -3.261719 "/></g></g></g><g fill="#000000" fill-opacity="1"><g transform="translate(80.058353, 15.386294)"><g><path d="M 1.546875 0 L 8.132812 0 L 8.132812 -0.417969 L 2.597656 -0.417969 L 2.597656 -11.101562 L 1.546875 -11.101562 Z M 1.546875 0 "/></g></g></g><g fill="#000000" fill-opacity="1"><g transform="translate(21.782896, 36.73587)"><g><path d="M 1.546875 0 L 8.148438 0 L 8.148438 -0.417969 L 2.597656 -0.417969 L 2.597656 -5.410156 L 6.785156 -5.410156 L 6.785156 -5.828125 L 2.597656 -5.828125 L 2.597656 -10.683594 L 7.824219 -10.683594 L 7.824219 -11.101562 L 1.546875 -11.101562 Z M 1.546875 0 "/></g></g></g><g fill="#000000" fill-opacity="1"><g transform="translate(31.476301, 36.73587)"><g><path d="M 4.359375 0 L 5.410156 0 L 5.410156 -10.683594 L 8.226562 -10.683594 L 8.226562 -11.101562 L 1.546875 -11.101562 L 1.546875 -10.683594 L 4.359375 -10.683594 Z M 4.359375 0 "/></g></g></g><g fill="#000000" fill-opacity="1"><g transform="translate(41.247002, 36.73587)"><g><path d="M 5.441406 0.171875 C 7.558594 0.171875 9.011719 -1.050781 9.011719 -3.261719 L 9.011719 -11.101562 L 8.597656 -11.101562 L 8.597656 -3.617188 C 8.597656 -1.191406 7.003906 -0.402344 5.441406 -0.402344 C 3.863281 -0.402344 2.582031 -1.5 2.582031 -3.617188 L 2.582031 -11.101562 L 1.546875 -11.101562 L 1.546875 -3.292969 C 1.546875 -1.066406 3.292969 0.171875 5.441406 0.171875 Z M 5.441406 0.171875 "/></g></g></g><g fill="#000000" fill-opacity="1"><g transform="translate(51.806165, 36.73587)"><g><path d="M 1.546875 0 L 4.746094 0 C 7.21875 0 9.214844 -2.488281 9.214844 -5.597656 C 9.214844 -8.703125 7.21875 -11.101562 4.746094 -11.101562 L 1.546875 -11.101562 Z M 2.597656 -0.402344 L 2.597656 -10.683594 L 4.746094 -10.683594 C 6.632812 -10.683594 8.179688 -8.117188 8.179688 -5.597656 C 8.179688 -3.0625 6.632812 -0.402344 4.746094 -0.402344 Z M 2.597656 -0.402344 "/></g></g></g><g fill="#000000" fill-opacity="1"><g transform="translate(62.257105, 36.73587)"><g><path d="M 1.546875 0 L 8.148438 0 L 8.148438 -0.417969 L 2.597656 -0.417969 L 2.597656 -5.410156 L 6.785156 -5.410156 L 6.785156 -5.828125 L 2.597656 -5.828125 L 2.597656 -10.683594 L 7.824219 -10.683594 L 7.824219 -11.101562 L 1.546875 -11.101562 Z M 1.546875 0 "/></g></g></g></svg>